<svg clip-rule="evenodd" fill-rule="evenodd" stroke-linejoin="round" stroke-miterlimit="2" viewBox="0 0 64 64" xmlns="http://www.w3.org/2000/svg"><path d="m-1216-192h1280v800h-1280z" fill="none"/><g fill-rule="nonzero"><path d="m50 46.5c-7.2 0-13-5.8-13-13s5.8-13 13-13 13 5.8 13 13-5.8 13-13 13zm0-22c-5 0-9 4-9 9s4 9 9 9 9-4 9-9-4-9-9-9z" transform="matrix(.93925463938 0 0 .93925463938 -15.3376496 -11.275755752)"/><path d="m34.036 58.5v8.5h-3.636v-8.5c0-7.182 8.818-12.727 20-12.727s20 5.545 20 12.727v8.5h-3.636v-8.5c0-4.909-7.455-9.091-16.364-9.091s-16.364 4.182-16.364 9.091z" transform="matrix(1.03318 0 0 1.03318 -20.069614 -13.20119)"/></g></svg>